<svg version="1.2" xmlns="http://www.w3.org/2000/svg" viewBox="0 0 40 41" width="40" height="41">
	<title>feature-decor-3-svg</title>
	<style>
		.s0 { fill: #da6464 } 
	</style>
	<g id="Layer" style="opacity: .1">
		<path id="Layer" class="s0" d="m0 9c0-4.4 3.6-8 8-8h24c4.4 0 8 3.6 8 8v24c0 4.4-3.6 8-8 8h-24c-4.4 0-8-3.6-8-8z"/>
	</g>
	<path id="Layer" class="s0" d="m17.3 25.7v3.8c0 0.3 0.2 0.5 0.4 0.6q0.1 0.1 0.2 0.1c0.2 0 0.4-0.1 0.5-0.3l2.3-3.1z"/>
	<path id="Layer" class="s0" d="m29.7 11.1c-0.2-0.1-0.4-0.1-0.6 0l-18.8 9.8c-0.2 0.1-0.3 0.3-0.3 0.6 0 0.2 0.2 0.4 0.4 0.5l5.2 1.8 11.1-9.5-8.6 10.3 8.8 3q0.1 0.1 0.2 0.1 0.2 0 0.3-0.1 0.3-0.2 0.3-0.5l2.3-15.4c0-0.2-0.1-0.4-0.3-0.6z"/>
</svg>